<?xml version="1.0" encoding="utf-8"?>
<!-- Generator: Adobe Illustrator 24.3.0, SVG Export Plug-In . SVG Version: 6.00 Build 0)  -->
<svg version="1.1"
	 id="Layer_1" inkscape:version="0.42" sodipodi:docbase="F:\openclip\svg da inviare" sodipodi:docname="papera.svg" sodipodi:version="0.32" xmlns:cc="http://web.resource.org/cc/" xmlns:dc="http://purl.org/dc/elements/1.1/" xmlns:inkscape="http://www.inkscape.org/namespaces/inkscape" xmlns:rdf="http://www.w3.org/1999/02/22-rdf-syntax-ns#" xmlns:sodipodi="http://inkscape.sourceforge.net/DTD/sodipodi-0.dtd" xmlns:svg="http://www.w3.org/2000/svg"
	 xmlns="http://www.w3.org/2000/svg" xmlns:xlink="http://www.w3.org/1999/xlink" x="0px" y="0px" viewBox="0 0 409.2 339.7"
	 style="enable-background:new 0 0 409.2 339.7;" xml:space="preserve">
<style type="text/css">
	.st0{fill-rule:evenodd;clip-rule:evenodd;fill:#557C3E;}
</style>
<sodipodi:namedview  bordercolor="#666666" borderopacity="1.0" id="base" inkscape:current-layer="Layer_1" inkscape:cx="204.57800" inkscape:cy="169.85800" inkscape:pageopacity="0.0" inkscape:pageshadow="2" inkscape:window-height="510" inkscape:window-width="787" inkscape:window-x="22" inkscape:window-y="29" inkscape:zoom="1.0597087" pagecolor="#ffffff">
	</sodipodi:namedview>
<path id="path3" class="st0" d="M33.6,70.7c9.5-1.6,18.4-4.8,27.5-7.7c10.5-3.4,18.2-2.2,29.7-1.1c-1.9,19.8,1.6,39.4-2.8,58.9
	c-4.2,18.9-17.2,34.7-19.3,54.5c-4,37.8,21.4,73.2,53,90.9c14.5,8.1,30.3,14.9,46.6,18.1c21,4.1,37.9-0.6,58.9-1.1
	c10-0.2,20,3.5,29.9,1.4c10.2-2.2,20.5-4.2,30.7-6.5c13.2-3.1,43.5-5.9,51.8-16.4c-0.9-0.2-1.9-0.2-2.8-0.6
	c5.6-2.1,36.8-16.5,18.7-23.2c15.9-11.3,40.1-17.9,53.4-31c-21.3-2.1-50.3,10.3-71.6,14.9c13.1-7.1,27.4-11.1,39.6-19.9
	c-14,3.7-56.8,23.4-61.7,4.4c11.4-2,22.1-5.2,33-8.8c-3.5-0.7-8.5-2.8-12-2c-4.2,1.1-12.4,5-16.6,4.2c-7.3-1.5-19.3-13.6-26.4-17.8
	c-18-10.6-37.3-18.5-57.3-24.2c-18.8-5.4-36.7-10.7-56.2-7.7c-14.9,2.3-31,5.9-43.5-5c-14.4-12.5-12.7-33.8-12.7-51.1
	c0-17.9,10.8-29.6,16.2-45.9c10.3-30.8-31-57.6-57.5-44.2C69.7,10,62.6,24,53.7,34.8C43.4,47.2,31.2,46.6,16.2,48.3
	C9.7,49,0,49.9,0,58.8C0,72.1,24.4,70.2,33.6,70.7"/>
<path id="path5" class="st0" d="M215.3,272.6c1.3,5.7-3.7,11.1-2.5,16.1c1.8,7.1,5.1,17.1,1.9,24.3c-7,15.7-31.7,10.9-45.2,13.8
	c5.2-0.1,9.2,3.4,10.5,8.3c10.9-10.3,7.5,1.1,13.8,3.9c5.2,2.3,10.8-1.3,17.1-0.6c10.4,1.3,8.3,2.2,17.6-0.6
	c5.9-1.8,13.8-2.7,19.3-5.5c-7.2-2.6-14.1-6.4-21.5-7.7c8.1-19.8-0.9-36.9-3.3-57.5C220.8,269,217.2,270.8,215.3,272.6"/>
<path id="path7" class="st0" d="M168.5,277.6c0,10.6,9.2,30.2,0,39.3c-5.6,5.5-16,2.2-23.4,2.2c-10.8,0-21.5,2.8-32.2,3.9
	c5.5-0.2,10.8,2.5,11.6,8.3c4.3-1.8,23.7,2.2,22.3,3.6c6.4-6.5,17.9-3.4,25.6-8c6.7-4.1,11-11.8,10.4-19.9c-0.5-6.1-2.9-13,1.8-17.8
	c3.6-3.6,7.8-7.3,9.3-12.1c-3.4,0.3-6.4,1.1-9.7,2.1c-9.1,2.7-2.8-0.3-6.8-3.2c0.2,0.1-2.7-10.1-7.7-5
	C167.9,272.7,167.9,275.4,168.5,277.6"/>
</svg>
