<svg xmlns="http://www.w3.org/2000/svg" viewBox="0 0 210.84 210.84"><defs><style>.cls-1{fill:#fff;}</style></defs><g id="Layer_2" data-name="Layer 2"><g id="Layer_1-2" data-name="Layer 1"><path class="cls-1" d="M103,157.91c-.47.49-1,1-1.43,1.42-2,2.1-1,5.12-.78,7.78a9.52,9.52,0,0,1-4.12,8.4c6.08-.7,15.27.48,18.06-5.77,1.4-3.15,0-7.52-.83-10.62a4.14,4.14,0,0,1,.11-2C110.24,157.43,106.67,157.86,103,157.91Z"/><path class="cls-1" d="M105.42,0A105.42,105.42,0,1,0,210.84,105.42,105.42,105.42,0,0,0,105.42,0Zm62.66,147.05a5.94,5.94,0,0,0,1.22.27c-3.63,4.58-16.87,5.81-22.64,7.16-4.46,1-9,1.88-13.42,2.84s-8.7-.7-13.07-.61l-.55,0c1.35,6.1,2.74,11.78.16,18.08,3.23.57,6.25,2.23,9.4,3.36-2.41,1.23-5.86,1.62-8.44,2.41-4.06,1.22-3.15.83-7.69.26-2.76-.31-5.2,1.27-7.48.26-2.75-1.22-1.26-6.21-6-1.7a4.68,4.68,0,0,0-3.48-3.5c-3.36,1.88-8.27.61-11,3.41.61-.61-7.87-2.36-9.75-1.57-.35-2.54-2.66-3.72-5.07-3.63,4.68-.48,9.36-1.71,14.08-1.71,3.23,0,7.78,1.45,10.23-1,3.25-3.22,1.23-9.46.35-14.17l-.44-.08a70.21,70.21,0,0,1-20.37-7.91c-13.81-7.73-24.91-23.21-23.16-39.73.91-8.65,6.59-15.56,8.43-23.82,1.92-8.52.39-17.09,1.22-25.74-5-.48-8.39-1-13,.48a88,88,0,0,1-12,3.36c-4-.22-14.68.61-14.68-5.2,0-3.89,4.24-4.28,7.08-4.59,6.55-.74,11.89-.48,16.39-5.9,3.89-4.72,7-10.84,12.46-13.55,11.58-5.86,29.63,5.86,25.13,19.32C79.57,61,74.85,66.15,74.85,74c0,7.56-.75,16.87,5.55,22.34,5.46,4.76,12.5,3.19,19,2.18,8.52-1.31,16.35,1,24.57,3.37a106.65,106.65,0,0,1,25,10.58c3.1,1.83,8.35,7.12,11.54,7.78,1.83.35,5.42-1.36,7.25-1.84,1.53-.35,3.72.57,5.25.87a100.11,100.11,0,0,1-14.42,3.85c2.14,8.31,20.84-.31,27-1.92-5.33,3.84-11.58,5.59-17.3,8.7,9.31-2,22-7.43,31.29-6.52-5.81,5.73-16.39,8.61-23.34,13.55C184.16,139.84,170.52,146.13,168.08,147.05Z"/></g></g></svg>