<svg xmlns="http://www.w3.org/2000/svg" viewBox="0 0 210.84 210.84"><defs><style>.cls-1{fill:#567c3d;}</style></defs><g id="Layer_2" data-name="Layer 2"><g id="Layer_1-2" data-name="Layer 1"><path class="cls-1" d="M105.42,0A105.42,105.42,0,1,0,210.84,105.42,105.42,105.42,0,0,0,105.42,0Zm56.67,158.34a5.14,5.14,0,0,1-3.29,3.41c-1.28.38-43.4,12.58-44.69,12.92-3.71,1-6.29.26-8-1.24-2.58-2.27-32.37-22.53-69.94-24.45-4-.19-2-15.42,9.43-15.42,7.87,0,30.87,5.71,33.65,2.93,2.14-2.15,3.11-14.86-5.83-37l-18-44.57a8.26,8.26,0,1,1,15.32-6.18l15.7,38.9c1.53,3.79,3.41,5.23,5.46,4.44,1.82-.69,2.2-1.91,1.09-5.6L76.85,38.78a8.25,8.25,0,1,1,15.63-5.31l15.39,45.32c1.36,4,2.8,6.07,5.07,5.11,1.37-.58,1.28-2.67.91-4.5l-10.8-43.26a8.26,8.26,0,1,1,16-4L129,72c1.46,5.86,2.79,8,5.11,7.39s2.25-2.52,1.93-4.13c-.75-3.75-6.9-34.22-6.9-34.22a7.5,7.5,0,0,1,14.71-3l7.5,37.26h0l4.49,22.34a95.91,95.91,0,0,0,3.56,12.07C168,132.61,163.55,153.76,162.09,158.34Z"/></g></g></svg>