<svg xmlns="http://www.w3.org/2000/svg" viewBox="0 0 210.84 210.84"><defs><style>.cls-1{fill:#fff;}</style></defs><g id="Layer_2" data-name="Layer 2"><g id="Layer_1-2" data-name="Layer 1"><path class="cls-1" d="M105.42,0A105.42,105.42,0,1,0,210.84,105.42,105.42,105.42,0,0,0,105.42,0ZM89.24,43c3.27-12.71,20.8-22.92,30.17-22.92,9.9,0-10,10.52-3.75,22.71,5.42,10.53.81,20.48-13.24,20.48C91.37,63.26,86.8,52.52,89.24,43ZM40.61,106.2c0-11.8,10.27-36,64.8-36s64.81,24.2,64.81,36v3.38l-8.4,7.22a9.75,9.75,0,0,1-12.49,0l-3.2-2.76a24.12,24.12,0,0,0-31.29,0l-3.18,2.75a9.77,9.77,0,0,1-12.5,0L96,114a24.14,24.14,0,0,0-31.29,0l-3.2,2.76a9.75,9.75,0,0,1-12.49,0l-8.38-7.22Zm129.62,50.4a7.2,7.2,0,0,1-7.2,7.2H47.83a7.2,7.2,0,0,1-7.21-7.2V128.43a24.09,24.09,0,0,0,30.28-.72L74.09,125a9.74,9.74,0,0,1,12.49,0l3.2,2.77a24.12,24.12,0,0,0,31.3,0l3.18-2.75a9.74,9.74,0,0,1,12.49,0l3.2,2.76a24.09,24.09,0,0,0,30.28.72Z"/></g></g></svg>